<svg width="23" height="17" viewBox="0 0 23 17" fill="none" xmlns="http://www.w3.org/2000/svg">
<path d="M18.6875 16.4391H14.9141C14.6176 16.4391 14.375 16.2079 14.375 15.9254V14.213C14.375 13.9304 14.6176 13.6992 14.9141 13.6992H18.6875C19.4826 13.6992 20.125 13.087 20.125 12.3293V4.10977C20.125 3.35203 19.4826 2.73985 18.6875 2.73985H14.9141C14.6176 2.73985 14.375 2.50867 14.375 2.22613V0.513721C14.375 0.231175 14.6176 0 14.9141 0H18.6875C21.0684 0 23 1.84083 23 4.10977V12.3293C23 14.5982 21.0684 16.4391 18.6875 16.4391ZM16.5762 7.83425L9.0293 0.642151C8.35547 0 7.1875 0.449506 7.1875 1.36992V5.47969H1.07812C0.480664 5.47969 0 5.93776 0 6.50714V10.6169C0 11.1863 0.480664 11.6443 1.07812 11.6443H7.1875V15.7541C7.1875 16.6745 8.35547 17.124 9.0293 16.4819L16.5762 9.28979C16.9939 8.88738 16.9939 8.23666 16.5762 7.83425Z" fill="white"/>
</svg>
